<?xml version="1.0" encoding="UTF-8" standalone="no"?>
<!-- Created with Inkscape (http://www.inkscape.org/) -->

<svg
   width="16mm"
   height="16mm"
   viewBox="0 0 16 16"
   version="1.1"
   id="svg1"
   xml:space="preserve"
   inkscape:version="1.4.2 (f4327f4, 2025-05-13)"
   sodipodi:docname="logoLP16.svg"
   xmlns:inkscape="http://www.inkscape.org/namespaces/inkscape"
   xmlns:sodipodi="http://sodipodi.sourceforge.net/DTD/sodipodi-0.dtd"
   xmlns="http://www.w3.org/2000/svg"
   xmlns:svg="http://www.w3.org/2000/svg"><sodipodi:namedview
     id="namedview1"
     pagecolor="#ffffff"
     bordercolor="#000000"
     borderopacity="0.25"
     inkscape:showpageshadow="2"
     inkscape:pageopacity="0.0"
     inkscape:pagecheckerboard="0"
     inkscape:deskcolor="#d1d1d1"
     inkscape:document-units="mm"
     inkscape:zoom="8"
     inkscape:cx="15.4375"
     inkscape:cy="36.5625"
     inkscape:window-width="1920"
     inkscape:window-height="1009"
     inkscape:window-x="-8"
     inkscape:window-y="-8"
     inkscape:window-maximized="1"
     inkscape:current-layer="layer1" /><defs
     id="defs1"><inkscape:path-effect
       effect="fillet_chamfer"
       id="path-effect3"
       is_visible="true"
       lpeversion="1"
       nodesatellites_param="F,0,0,1,0,0,0,1 @ F,0,0,1,0,0,0,1 @ F,0,0,1,0,0,0,1 @ F,0,0,1,0,0,0,1 @ F,0,0,1,0,0,0,1 @ F,0,0,1,0,0,0,1 @ F,0,0,1,0,0,0,1 @ F,0,0,1,0,0,0,1 @ F,0,0,1,0,0,0,1 @ F,0,0,1,0,0,0,1 @ F,0,0,1,0,0,0,1 @ F,0,0,1,0,0,0,1 @ F,0,0,1,0,0,0,1 @ F,0,0,1,0,0,0,1"
       radius="0"
       unit="px"
       method="auto"
       mode="F"
       chamfer_steps="1"
       flexible="false"
       use_knot_distance="true"
       apply_no_radius="true"
       apply_with_radius="true"
       only_selected="false"
       hide_knots="false" /></defs><g
     inkscape:label="Layer 1"
     inkscape:groupmode="layer"
     id="layer1"><g
       id="g13"
       transform="matrix(0.67628044,0,0,0.67469554,-20.724396,-91.969837)"><g
         id="g12"
         style="fill:#333333"><path
           id="path8-5"
           style="fill:#333333;stroke:#000000;stroke-width:0"
           d="m 40.060439,140.35744 -0.147057,1.79466 1.760227,0.52016 0.09561,0.13936 0.05186,0.19932 0.01701,0.22525 -2.920072,13.64064 1.771975,0.0121 1.573063,-7.10653 5.207759,1.67434 3.875335,-6.69575 -0.767289,-1.04803 z m 5.008443,3.37866 c 0.007,-8.6e-4 0.01573,5.5e-4 0.02431,0.002 0.01046,0.003 0.0208,0.006 0.02795,0.009 0.0088,0.003 0.01856,0.006 0.02957,0.01 0.48625,0.16005 3.120572,1.02722 4.503264,1.48232 0.01195,0.004 0.02383,0.008 0.03565,0.0118 0.0087,0.003 0.02633,0.009 0.02633,0.009 0.02115,0.007 0.03547,0.0385 0.0393,0.0604 0.0041,0.0235 -0.0048,0.0551 -0.0158,0.0762 0,0 -0.718444,1.39201 -1.101104,2.12038 -0.0067,0.0128 -0.02987,0.0466 -0.03564,0.0616 -0.01966,0.0326 -0.02346,0.0703 -0.03446,0.1032 -0.0076,0.008 -0.02308,0.0221 -0.03565,0.0332 l -1.68285,1.52283 -4.179171,-1.3543 0.473175,-2.26663 c 0.0015,-0.007 0.0015,-0.0161 0.0016,-0.0243 9.4e-5,-0.006 -3.01e-4,-0.0121 -4.06e-4,-0.0182 -1.25e-4,-0.007 -0.0013,-0.0151 -4.05e-4,-0.0223 9.83e-4,-0.008 0.0032,-0.0157 0.0061,-0.0231 0.0038,-0.009 0.0086,-0.0182 0.01458,-0.0263 0.0086,-0.0115 0.0197,-0.0207 0.02998,-0.0308 0.0043,-0.004 0.0089,-0.008 0.01337,-0.0126 0.607158,-0.56555 1.219382,-1.12651 1.823829,-1.69459 0.0086,-0.008 0.01722,-0.0165 0.02593,-0.0247 0.0026,-0.003 0.0063,-0.004 0.01053,-0.004 z m -2.717515,6.29671 -1.624513,7.37148 0.674112,0.0984 1.571038,-7.26129 z"
           sodipodi:nodetypes="ccccccccccccccccccccccccccccccccccccccccccccc" /></g><path
         id="path1-5"
         style="fill:#1a1a1a;stroke:#000000;stroke-width:0"
         d="m 37.015312,137.05417 4.070035,3.12229 0.542603,-3.10162 z m 1.270723,1.10639 -1.421618,0.006 4.030244,3.06183 0.167949,-0.94051 z m 0.05064,1.28829 -3.169832,18.26762 3.066479,-1.16892 1.054199,-6.09472 c 0,0 -0.190059,-0.0136 -0.281119,-0.0393 -0.178592,-0.0503 -0.355354,-0.12001 -0.510564,-0.22169 -0.200689,-0.13148 -0.380696,-0.30046 -0.526582,-0.49093 -0.127669,-0.16669 -0.234836,-0.35527 -0.294556,-0.55656 -0.06338,-0.21365 -0.08675,-0.44486 -0.05994,-0.6661 0.03799,-0.31358 0.13763,-0.63008 0.307992,-0.89607 0.141635,-0.22114 0.344926,-0.408 0.569474,-0.54416 0.199684,-0.12109 0.432505,-0.19121 0.663526,-0.22531 0.253824,-0.0375 0.768945,0.0264 0.768945,0.0264 l 0.931209,-5.4591 z m 1.157552,7.47707 c -0.142704,-0.001 -0.286824,0.0125 -0.425297,0.047 -0.131872,0.0329 -0.259311,0.0856 -0.378788,0.15038 -0.142552,0.0773 -0.279452,0.16932 -0.397392,0.2806 -0.131169,0.12376 -0.249887,0.26557 -0.337447,0.42323 -0.06528,0.11754 -0.102725,0.24979 -0.134875,0.38034 -0.02419,0.0982 -0.03809,0.19919 -0.04289,0.30024 -0.0081,0.17168 -0.01028,0.34686 0.02429,0.51522 0.03642,0.17738 0.09946,0.35229 0.190169,0.50901 0.09307,0.1608 0.215793,0.30647 0.355534,0.42891 0.107054,0.0938 0.232706,0.16676 0.361735,0.22686 0.140931,0.0656 0.291722,0.11135 0.443901,0.14315 0.05347,0.0114 0.163297,0.016 0.163297,0.016 l 0.110588,-0.69867 c 0,0 -0.180117,-0.008 -0.264067,-0.0367 -0.135987,-0.0465 -0.267864,-0.11767 -0.37362,-0.21497 -0.10595,-0.0975 -0.190303,-0.22253 -0.245463,-0.35554 -0.05175,-0.12478 -0.07488,-0.26334 -0.07338,-0.39842 0.0017,-0.1503 0.02763,-0.30548 0.09198,-0.44132 0.05849,-0.12346 0.154427,-0.22904 0.257349,-0.31884 0.07737,-0.0675 0.16907,-0.11938 0.26355,-0.15968 0.109005,-0.0465 0.225332,-0.086 0.343648,-0.092 0.119784,-0.006 0.355534,0.0553 0.355534,0.0553 l 0.103869,-0.71107 c 0,0 -0.26041,-0.0481 -0.392224,-0.0491 z m -0.02222,0.87643 c -0.08619,-5e-4 -0.173258,0.0114 -0.255798,0.0362 -0.07819,0.0235 -0.152182,0.0621 -0.221692,0.1049 -0.03198,0.0197 -0.0611,0.0439 -0.08888,0.0693 -0.0376,0.0343 -0.07527,0.0694 -0.104387,0.11111 -0.06282,0.0899 -0.117178,0.18908 -0.147278,0.29455 -0.03041,0.10658 -0.03839,0.22018 -0.03049,0.33073 0.0075,0.10482 0.03279,0.21006 0.07338,0.30696 0.03159,0.0754 0.07494,0.14704 0.129708,0.20774 0.06037,0.067 0.13417,0.12388 0.21394,0.16588 0.08352,0.0439 0.176501,0.0713 0.269751,0.0858 0.05049,0.008 0.152962,0 0.152962,0 l 0.07441,-0.40256 c 0,0 -0.05039,0.001 -0.07545,-5.1e-4 -0.04092,-0.004 -0.08314,-0.005 -0.12144,-0.0196 -0.06607,-0.0256 -0.130947,-0.0631 -0.177767,-0.11627 -0.05556,-0.0631 -0.09782,-0.14376 -0.110587,-0.22686 -0.01475,-0.096 0.0055,-0.19876 0.04289,-0.28836 0.02757,-0.066 0.0719,-0.12806 0.128674,-0.17156 0.05241,-0.0402 0.119119,-0.0614 0.183969,-0.0739 0.07024,-0.0135 0.143523,-0.003 0.214973,0 0.0239,0.001 0.07131,0.007 0.07131,0.007 l 0.07545,-0.37517 c 0,0 -0.197194,-0.0449 -0.297657,-0.0455 z m -0.0016,0.52606 c -0.01027,-2.2e-4 -0.01987,4.3e-4 -0.02842,0.002 -0.06641,0.009 -0.133756,0.0358 -0.183968,0.0801 -0.04077,0.036 -0.06744,0.0887 -0.08372,0.14056 -0.01418,0.0452 -0.01529,0.0945 -0.0098,0.1416 0.0049,0.0421 0.01618,0.0849 0.03772,0.12144 0.02329,0.0395 0.05718,0.0734 0.09508,0.0992 0.03218,0.0219 0.0704,0.0339 0.108004,0.0439 0.04561,0.0121 0.14056,0.0191 0.14056,0.0191 l 0.100769,-0.61547 c 0,0 -0.10433,-0.0305 -0.176217,-0.032 z m -1.208712,8.55452 -3.360001,1.29398 -1.299663,1.09761 14.362431,0.0119 0.42478,-2.389 z" /></g></g></svg>
